<svg width="130" height="50" viewBox="0 0 130 50" fill="none" xmlns="http://www.w3.org/2000/svg">
<path d="M10.4282 22.1315H9.58266V42.6548H3.28817V14.6423C3.0533 9.43351 5.84824 7.36918 10.4986 7.36918C11.579 7.36918 12.5655 7.41719 13.5285 7.58521V13.2501H11.8844C10.4282 13.2501 9.62963 13.9222 9.48871 15.2664V17.0667H13.5519V18.675C13.5285 20.5233 12.1192 22.1315 10.4282 22.1315Z" fill="black"/>
<path d="M23.1111 22.4916H16.8401C17.5917 17.4268 20.8564 14.9544 26.6107 14.9544C33.4923 14.9544 36.9919 17.4268 37.1328 22.4916V31.7811C37.1328 39.3183 32.9756 42.6788 26.2349 43.1829C20.2457 43.687 16.0885 40.6625 16.0885 34.6135C16.2294 28.0605 20.5745 26.3082 26.8925 25.6361C29.5935 25.276 30.9557 24.3879 30.9557 22.8997C30.8148 21.3634 29.4996 20.5713 26.8925 20.5713C24.6847 20.5713 23.4399 21.1954 23.1111 22.4916ZM31.0497 31.469V28.9486C29.5935 29.6207 27.879 30.1968 26.047 30.6049C23.5339 31.109 22.2656 32.4052 22.2656 34.4215C22.4065 36.5819 23.4399 37.614 25.4363 37.614C28.9359 37.59 31.0497 35.3337 31.0497 31.469Z" fill="black"/>
<path d="M51.0605 37.71C53.7146 37.71 55.0298 36.8939 55.0298 35.1416C55.0298 33.7494 52.869 32.6212 48.5709 31.7811C43.0515 30.7009 40.2096 28.0125 40.1626 23.7398C40.1626 17.8589 44.4137 15.0744 50.1211 14.9784C53.3388 14.9784 55.8754 15.7465 57.7778 17.3068C59.6098 18.915 60.6197 21.1234 60.7606 23.9558H56.7913C55.3352 23.9078 54.3957 23.3317 53.9964 22.2516C53.5736 21.0754 52.3053 20.4033 50.215 20.4033C47.7489 20.4033 46.5276 21.1234 46.5276 22.5156C46.5276 23.9078 48.1247 24.988 51.3894 25.6601C55.6405 26.5963 58.4119 27.7724 59.7977 29.1647C60.972 30.5089 61.5357 32.1651 61.5357 34.0134C61.5357 40.7105 56.7209 43.2069 50.1211 43.2069C46.6215 43.2069 43.991 42.3908 42.2764 40.7825C40.3975 39.2463 39.4345 36.8699 39.4345 33.7254H45.8464C46.0108 36.6779 48.0072 37.71 51.0605 37.71Z" fill="black"/>
<path d="M75.8862 21.0994C72.1518 21.0994 70.5547 24.5079 70.5547 28.6846V42.6548H64.2837V7.58521H67.4544C69.5212 7.58521 70.5782 8.7614 70.5782 11.0418V19.2031C73.7959 15.1704 77.6947 14.0422 82.3686 15.8425C85.8681 17.2348 87.5122 20.9073 87.3243 26.8363V42.6788H81.1003V28.7086C81.0768 24.0759 79.4797 21.0994 75.8862 21.0994Z" fill="black"/>
<path d="M90.5185 11.3298C90.5185 8.85742 91.5989 7.56121 93.8302 7.56121H97.0948V42.6548H90.542V11.3298H90.5185Z" fill="#95017B"/>
<path d="M103.648 7.58521H125.89V13.8262H116.401V42.6548H109.848V13.8262H100.36V11.3298C100.336 9.33749 101.816 7.58521 103.648 7.58521Z" fill="#95017B"/>
</svg>
